<svg width="40" height="40" viewBox="0 0 40 40" fill="none" xmlns="http://www.w3.org/2000/svg" role="img" aria-label="Sport.md">
  <rect x="2" y="2" width="36" height="36" rx="10" fill="#0046AE"/>
  <rect x="2" y="2" width="12" height="36" rx="10" fill="#0046AE"/>
  <rect x="14" y="2" width="12" height="36" fill="#FFD200"/>
  <rect x="26" y="2" width="12" height="36" rx="10" fill="#CC092F"/>
  <path d="M2 12 Q2 2 12 2 L28 2 Q38 2 38 12 L38 28 Q38 38 28 38 L12 38 Q2 38 2 28 Z" fill="none"/>
  <circle cx="20" cy="20" r="9" fill="#ffffff"/>
  <path d="M20 12.5 L22.3 17 L20 19 L17.7 17 Z M13.2 18.2 L17.4 18.4 L18.3 21.1 L15.9 24.4 L13 22 Z M26.8 18.2 L24.1 24.4 L21.7 21.1 L22.6 18.4 Z M17.2 25.9 L22.8 25.9 L21 28.5 L19 28.5 Z" fill="#0046AE"/>
</svg>
